# xmcd CD database file
#
# Track frame offsets:
#	150
#	16185
#	37000
#	56874
#	76137
#	97416
#	125136
#	151637
#	174668
#	194886
#
# Disc length: 2899 seconds
#
# Revision: 1
# Processed by: cddbd v1.5.2PL0 Copyright (c) Steve Scherf et al.
# Submitted via: CDex 1.70beta2
#
DISCID=8a0b510a
DTITLE=Stefania Rava - The Sweetest Sound - PCCY-30159
DYEAR=2010
DGENRE=Classical
TTITLE0=That's What Friends Are For
TTITLE1=Burning Up the Carnival
TTITLE2=Empty Faces
TTITLE3=Snowflake
TTITLE4=The Sweetest Pain
TTITLE5=Can't Sleep
TTITLE6=Family Affair
TTITLE7=Never Was Love
TTITLE8=The Sweetest Sound
TTITLE9=Ordinary Pain
EXTD=YEAR: 2010
EXTT0=
EXTT1=
EXTT2=
EXTT3=
EXTT4=
EXTT5=
EXTT6=
EXTT7=
EXTT8=
EXTT9=
PLAYORDER=
